<svg xmlns="http://www.w3.org/2000/svg" viewBox="0 0 400.26 400.26"><defs><style>.cls-1{fill:#fff;}</style></defs><title>close</title><g id="Layer_2" data-name="Layer 2"><g id="Layer_1-2" data-name="Layer 1"><path class="cls-1" d="M257.7,206.53a8.85,8.85,0,0,1,0-12.8L394.78,56.66a19.73,19.73,0,0,0,5.48-12.8,19.73,19.73,0,0,0-5.48-12.79L369.19,5.48A19.76,19.76,0,0,0,356.4,0c-5.48,0-9.14,1.83-12.79,5.48L206.53,142.56a8.83,8.83,0,0,1-12.8,0L56.66,5.48A19.78,19.78,0,0,0,43.86,0,19.78,19.78,0,0,0,31.07,5.48L5.48,31.07A19.78,19.78,0,0,0,0,43.86a19.78,19.78,0,0,0,5.48,12.8L142.56,193.73a8.83,8.83,0,0,1,0,12.8L5.48,343.61a17.67,17.67,0,0,0,0,25.58l25.59,25.59a19.73,19.73,0,0,0,12.79,5.48,19.73,19.73,0,0,0,12.8-5.48L193.73,257.7a8.85,8.85,0,0,1,12.8,0L343.61,394.78a17.67,17.67,0,0,0,25.58,0l25.59-25.59a17.67,17.67,0,0,0,0-25.58Z"/></g></g></svg>