<svg xmlns="http://www.w3.org/2000/svg" viewBox="0 0 512 512"><defs><style>.cls-1{fill:#fff;}</style></defs><title>fitness-white</title><g id="Layer_2" data-name="Layer 2"><g id="Layer_1-2" data-name="Layer 1"><path class="cls-1" d="M317.65,194.35a10,10,0,1,0,0,14.14A10,10,0,0,0,317.65,194.35Z"/><path class="cls-1" d="M500.27,195.56l-14.14-14.14a50,50,0,0,0,1.21-71.92l-7.07-7.07,7.07-7.07a50,50,0,0,0-70.69-70.71l-7.08,7.08-7.07-7.07a50,50,0,0,0-70.71,0l-1.21,1.21L316.44,11.73a40,40,0,1,0-56.57,56.56l56.57,56.56L124.85,316.43,68.29,259.87a40,40,0,1,0-56.56,56.57l14.14,14.14-1.21,1.2a50,50,0,0,0,0,70.72l7.07,7.07-7.07,7.07a50,50,0,0,0,70.7,70.71l7.08-7.08,7.06,7.07a50,50,0,0,0,70.72,0l1.21-1.2,14.13,14.13a40,40,0,1,0,56.57-56.56l-56.56-56.56L387.15,195.57l56.56,56.56a40,40,0,1,0,56.56-56.57ZM430.79,38.8A30,30,0,1,1,473.2,81.22l-7.07,7.07L423.71,45.87Zm-84.86,0a30,30,0,0,1,42.42,0l84.85,84.85a30,30,0,0,1,0,42.42L472,167.28,344.72,40ZM81.21,473.2A30,30,0,1,1,38.8,430.78l7.07-7.07,42.42,42.42Zm84.86,0a30,30,0,0,1-42.42,0L38.8,388.35a30,30,0,0,1,0-42.42L40,344.72,167.28,472ZM238,457.86a20,20,0,1,1-28.29,28.27L25.87,302.3A20,20,0,1,1,54.15,274ZM181.42,373,139,330.58,330.58,139,373,181.42ZM486.13,238a20,20,0,0,1-28.27,0L274,54.14A20,20,0,1,1,302.3,25.87L486.13,209.7A20,20,0,0,1,486.13,238Z"/><path class="cls-1" d="M289.36,222.64a10,10,0,0,0-14.14,0l-80.87,80.87a10,10,0,0,0,14.14,14.14l80.87-80.87A10,10,0,0,0,289.36,222.64Z"/></g></g></svg>