<svg xmlns="http://www.w3.org/2000/svg" viewBox="0 0 319.95 520"><defs><style>.cls-1{fill:#fff;stroke:#fff;stroke-miterlimit:10;stroke-width:8px;}</style></defs><title>Asset 5</title><g id="Layer_2" data-name="Layer 2"><g id="Layer_1-2" data-name="Layer 1"><path class="cls-1" d="M75.9,4C56.31,4,37.81,17.87,23.81,43,11.22,65.68,4,94.54,4,122.24c0,28.33,14.75,54.12,38.5,67.31a23.91,23.91,0,0,1,12.57,22l-2,42.52a7.52,7.52,0,0,0,15,.7l2-42.52A38.85,38.85,0,0,0,49.81,176.4C30.83,165.87,19,145.11,19,122.24,19,97,25.57,70.82,37,50.35,48,30.45,62.21,19,75.9,19s27.89,11.41,39,31.31c11.38,20.47,17.91,46.67,17.91,71.89,0,22.87-11.79,43.63-30.77,54.16a38.85,38.85,0,0,0-20.28,35.87L94.24,481.75a18.36,18.36,0,1,1-36.67,0l9.15-196.91a7.52,7.52,0,0,0-15-.7L42.54,481.05a33.4,33.4,0,1,0,66.72,0L96.74,211.57a23.91,23.91,0,0,1,12.56-22c23.75-13.18,38.51-39,38.51-67.31,0-27.7-7.22-56.56-19.81-79.2C114,17.87,95.5,4,75.9,4Z"/><path class="cls-1" d="M280.2,189.86A69,69,0,0,0,315.86,126L310.45,22.65a19.68,19.68,0,0,0-39.32,1.48l2,89.47a3.76,3.76,0,1,1-7.51.12l-.93-92a17.88,17.88,0,0,0-35.75,0l-.93,92a3.76,3.76,0,0,1-3.75,3.72,3.76,3.76,0,0,1-3.76-3.84l2-90a19.19,19.19,0,0,0-38.34-1.44L178.79,126a68.29,68.29,0,0,0,35.65,63.87,23.82,23.82,0,0,1,12,21.95l-7.41,159.42a7.52,7.52,0,1,0,15,.7l7.41-159.43a38.93,38.93,0,0,0-19.82-35.83,53.33,53.33,0,0,1-27.86-49.89L199.25,23A4.13,4.13,0,0,1,203.38,19a4.15,4.15,0,0,1,4.14,4.23l-2,90a18.8,18.8,0,1,0,37.59.62l.93-92a2.84,2.84,0,0,1,5.67,0l.93,92a18.85,18.85,0,0,0,18.79,18.61,18.82,18.82,0,0,0,18.8-19.23l-2-89.47a4.64,4.64,0,0,1,9.27-.35l5.41,103.38A53.22,53.22,0,0,1,273,176.66a38.86,38.86,0,0,0-19.84,35.8l12.51,269.29a18.2,18.2,0,0,1-5.17,13.65,18.13,18.13,0,0,1-26.31-.2,19.28,19.28,0,0,1-5.16-14l3.67-79.08a7.52,7.52,0,0,0-15-.7L214,480.5a34.39,34.39,0,0,0,9.21,25A32.77,32.77,0,0,0,246.7,516h.61a33.39,33.39,0,0,0,33.38-34.95L268.17,211.76a23.73,23.73,0,0,1,12-21.9Z"/></g></g></svg>