<svg xmlns="http://www.w3.org/2000/svg" viewBox="0 0 346.92 423"><defs><style>.cls-1{fill:#fff;stroke:#fff;stroke-miterlimit:10;stroke-width:8px;}</style></defs><title>Asset 4</title><g id="Layer_2" data-name="Layer 2"><g id="Layer_1-2" data-name="Layer 1"><path class="cls-1" d="M287.58,218.42a55.38,55.38,0,0,0-54.85,48.41H156.17V224.47a27.92,27.92,0,0,0,17.33-13L262.86,60.38a28.17,28.17,0,0,0-24.24-42.55H222.91A24.2,24.2,0,0,0,201.13,4c-11,0-38,8.49-38,24.21s27,24.21,38,24.21A24.17,24.17,0,0,0,225,31.67h13.63A14.35,14.35,0,0,1,251,53.34L161.59,204.47a14.35,14.35,0,0,1-24.73-.07L45,53.33A14.35,14.35,0,0,1,57.34,31.67H73.51A24.19,24.19,0,0,0,97.38,52.42c11,0,38-8.49,38-24.21S108.41,4,97.38,4A24.2,24.2,0,0,0,75.59,17.83H57.34a28.19,28.19,0,0,0-24.2,42.62L125,211.52a27.86,27.86,0,0,0,17.32,12.95v42.36H80.08a76.09,76.09,0,1,0,76.09,76.09V280.67h76.56a55.31,55.31,0,1,0,54.85-62.25ZM201.13,38.58c-8.54,0-23.23-6.84-24.2-10.37,1-3.54,15.66-10.38,24.2-10.38a10.38,10.38,0,0,1,0,20.75ZM97.38,17.83c8.53,0,23.22,6.84,24.19,10.38-1,3.53-15.66,10.37-24.19,10.37a10.38,10.38,0,1,1,0-20.75Zm45,325.09a62.25,62.25,0,1,1-62.25-62.25h62.25Zm145.25-27.67a41.5,41.5,0,1,1,41.5-41.5A41.54,41.54,0,0,1,287.58,315.25Z"/><path class="cls-1" d="M287.58,246.08a27.67,27.67,0,1,0,27.67,27.67A27.7,27.7,0,0,0,287.58,246.08Zm0,41.5a13.83,13.83,0,1,1,13.84-13.83A13.84,13.84,0,0,1,287.58,287.58Z"/></g></g></svg>