<svg xmlns="http://www.w3.org/2000/svg" viewBox="0 0 420.05 512"><defs><style>.cls-1{fill:#fff;}</style></defs><title>Asset 1</title><g id="Layer_2" data-name="Layer 2"><g id="Layer_1-2" data-name="Layer 1"><path class="cls-1" d="M54,298.31l17.36,11.37L78,285c11.62-43.32,10.39-41.4,11.55-46.21-.47-2.7-12.7-35.25-4.18-74.79l.17-.91c11.64-76.88,140.3-97.81,200.05-47.78,25.77,21.58,35.47,54,28,93.66-5.34,28.5-14.65,49.76-29.31,66.89-20.24,23.64-45.69,25.57-60.77,17.34-5.62-3.05-18.05-12.26-12.29-31.55,8.25-27.61,23.15-69.2,24.91-99.36,1.57-26.87-14.63-48.74-40.32-54.42-28.64-6.33-61.63,9.12-75.89,45.17-10.27,25.92-10.24,52.87.08,82.34.34,7.27-7.06,34.68-13,56.8-18,66.86-42.76,158.43-18.69,205.06L95.88,512l13.89-9c39.7-25.8,62.89-100.88,75.6-147.65,33.46,24.78,80.88,26.87,127.78,4,75.28-36.77,125.51-124.51,100.34-222.2C385.45,28.2,276.59-14,167,4,76.58,18.89,19.1,77.43,3.84,149.59-9,210.46,11.14,270.23,54,298.31ZM33.18,155.79C46.81,91.32,98.64,45.65,171.82,33.62c87.89-14.46,187.73,14.24,212.63,110.94,23,89.42-27.63,160-84.46,187.77-34.87,17-82.25,22.07-110.67-14.82l-18.55-24.07L163,322.8c-10.33,38.73-27,104.49-53.86,139.63C103.82,419,123.41,346.36,135.91,300c11.94-44.23,16.62-62.62,12.63-73.83-8.07-22.66-8.32-43-.75-62.09,8.47-21.41,26.55-30.23,41.53-26.92,5.41,1.2,17.88,5.87,16.86,23.39-1.52,25.91-16,66.68-23.7,92.53-8.11,27.13,2.36,53.22,26.66,66.47,27.31,14.88,68.32,10.39,97.91-24.18,18.22-21.29,29.66-47,36-80.87,4.91-26.2,3.74-50.28-3.46-71.6a111.86,111.86,0,0,0-34.8-50.58c-77.38-64.79-233.14-35-248.88,65.82C50.3,184.53,51.22,212,58.63,239.8,57.44,245,55.75,251.71,54,258.58,33.08,234,24.79,195.47,33.18,155.79Z"/></g></g></svg>