<svg xmlns="http://www.w3.org/2000/svg" viewBox="0 0 450.9 451"><defs><style>.cls-1{fill:#fff;}</style></defs><title>search-white</title><g id="Layer_2" data-name="Layer 2"><g id="Layer_1-2" data-name="Layer 1"><path class="cls-1" d="M447,428,337.4,318.4a191.52,191.52,0,0,0,47.2-126.1C384.6,86.2,298.3,0,192.3,0S0,86.3,0,192.3,86.3,384.6,192.3,384.6a191.52,191.52,0,0,0,126.1-47.2L428,447a13.59,13.59,0,0,0,9.5,4,13.17,13.17,0,0,0,9.5-4A13.52,13.52,0,0,0,447,428ZM26.9,192.3C26.9,101.1,101.1,27,192.2,27s165.3,74.2,165.3,165.3S283.4,357.7,192.2,357.7,26.9,283.5,26.9,192.3Z"/></g></g></svg>