<svg xmlns="http://www.w3.org/2000/svg" viewBox="0 0 512 419.05"><defs><style>.cls-1{fill:#fff;}</style></defs><title>Asset 7</title><g id="Layer_2" data-name="Layer 2"><g id="Layer_1-2" data-name="Layer 1"><path class="cls-1" d="M512,56c-32.21,1.49-31.5,1.37-35.14,1.67L495.93,3.16S436.39,25.06,421.3,29C381.66-6.65,322.73-8.22,280.61,17.67c-34.5,21.2-53,57.62-46.84,100.19-67.13-9.32-123.7-41.14-168.36-94.79l-14.12-17L40.73,25.49C27.39,50,23,78,28.25,104.34a113.74,113.74,0,0,0,11,30.78l-12.12-4.69-1.43,20.24c-1.46,20.57,5.39,44.58,18.32,64.22a113.57,113.57,0,0,0,14.27,17.59l-6.27-1,7.64,23.2c10,30.48,30.91,54.06,58,67.17-27,11.48-48.88,18.8-84.78,30.61L0,363.29l30.34,16.59c11.56,6.32,52.43,27.44,92.82,33.78C212.92,427.74,314,416.27,382,355c57.31-51.62,76.11-125,72.2-201.44-.59-11.56,2.58-22.6,8.93-31.08C475.86,105.52,511.92,56.08,512,56Zm-72.83,48.56c-10.54,14.06-15.81,32-14.87,50.57,3.94,77.07-17,136.84-62.33,177.63-52.92,47.66-138.27,66.37-234.17,51.33-17.37-2.73-35.32-8.82-50.17-14.91,30.1-10.36,53.34-19.59,90.87-37.36L220.9,307l-57.85-3.7c-27.71-1.77-50.78-15.2-65-37a103.08,103.08,0,0,0,22-3.67l55.17-15.37-55.64-13.62c-27-6.62-42.44-22.8-50.61-35.2a85,85,0,0,1-11-24.21c5.58,1.5,12.08,2.57,22.57,3.6l51.5,5.1-40.8-31.83c-29.4-22.93-41.18-57.38-32.54-90.5,91.75,95.17,199.47,88,210.32,90.53-2.39-23.18-2.45-23.24-3.08-25.44-13.89-49.09,16.55-74,30.27-82.46C325,25.58,370.49,22.93,402,52a26.86,26.86,0,0,0,24.63,6.59,207.24,207.24,0,0,0,20.3-6.18L434,89.32h16.52Z"/></g></g></svg>